<?xml version="1.0" encoding="utf-8"?>
<!-- Generator: Adobe Illustrator 23.1.0, SVG Export Plug-In . SVG Version: 6.00 Build 0)  -->
<svg version="1.1" id="Layer_1" xmlns="http://www.w3.org/2000/svg" xmlns:xlink="http://www.w3.org/1999/xlink" x="0px" y="0px"
	 viewBox="0 0 1200 792" style="enable-background:new 0 0 1200 792;" xml:space="preserve">
<style type="text/css">
	.st0{fill:#42C7F4;}
	.st1{fill:none;stroke:#FFFFFF;stroke-width:16;stroke-miterlimit:10;}
	.st2{fill:#FFFFFF;}
	.st3{font-family:'MVBoli';}
	.st4{font-size:175.3966px;}
	.st5{letter-spacing:-13;}
</style>
<g>
	
		<image style="overflow:visible;opacity:0.69;enable-background:new    ;" width="1533" height="1325" xlink:href="3F827D2E.png"  transform="matrix(0.3262 0 0 0.3262 101.96 39.1604)">
	</image>
	<g>
		<path class="st0" d="M341.9,430.1c0,0,32.4-37,24.1-75.9c0,0-122.1-8.3-146.2-12c-24.1-3.7-56.4-11.1-70.3-56.4
			C135.6,240.5,128,101.7,128,101.7s5.8-48.1,70.5-39.8c64.8,8.3,322.9,27.8,322.9,27.8s50.9,6.5,42.6,67.5s-41.6,146.2-41.6,146.2
			s-25,60.1-74.9,55.5c0,0-13.9,5.6-23.1,21.3C415,395.9,381.7,432.9,341.9,430.1z"/>
		<path class="st1" d="M341.9,430.1c0,0,32.4-37,24.1-75.9c0,0-122.1-8.3-146.2-12c-24.1-3.7-56.4-11.1-70.3-56.4
			C135.6,240.5,128,101.7,128,101.7s5.8-48.1,70.5-39.8c64.8,8.3,322.9,27.8,322.9,27.8s50.9,6.5,42.6,67.5s-41.6,146.2-41.6,146.2
			s-25,60.1-74.9,55.5c0,0-13.9,5.6-23.1,21.3C415,395.9,381.7,432.9,341.9,430.1z"/>
	</g>
</g>
<text transform="matrix(0.996 8.969721e-02 -8.969721e-02 0.996 211.3033 265.3392)" class="st2 st3 st4 st5">hi !</text>
</svg>
