<?xml version="1.0" encoding="utf-8"?>
<!-- Generator: Adobe Illustrator 23.1.0, SVG Export Plug-In . SVG Version: 6.00 Build 0)  -->
<svg version="1.1" id="Layer_1" xmlns="http://www.w3.org/2000/svg" xmlns:xlink="http://www.w3.org/1999/xlink" x="0px" y="0px"
	 viewBox="0 0 1200 792" style="enable-background:new 0 0 1200 792;" xml:space="preserve">
<style type="text/css">
	.st0{fill:#46C7F4;}
	.st1{fill:none;stroke:#FFFFFF;stroke-width:16;stroke-miterlimit:10;}
</style>
<g>
	
		<image style="overflow:visible;opacity:0.69;enable-background:new    ;" width="1533" height="1325" xlink:href="FB0587A7.png"  transform="matrix(0.3262 0 0 0.3262 349.7458 180.2933)">
	</image>
	<g>
		<path class="st0" d="M589.7,571.3c0,0,32.4-37,24.1-75.9c0,0-122.1-8.3-146.2-12c-24.1-3.7-56.4-11.1-70.3-56.4
			c-13.9-45.3-21.5-184.1-21.5-184.1s5.8-48.1,70.5-39.8c64.8,8.3,322.9,27.8,322.9,27.8s50.9,6.5,42.6,67.5s-41.6,146.2-41.6,146.2
			s-25,60.1-74.9,55.5c0,0-13.9,5.6-23.1,21.3C662.8,537,629.5,574,589.7,571.3z"/>
		<path class="st1" d="M589.7,571.3c0,0,32.4-37,24.1-75.9c0,0-122.1-8.3-146.2-12c-24.1-3.7-56.4-11.1-70.3-56.4
			c-13.9-45.3-21.5-184.1-21.5-184.1s5.8-48.1,70.5-39.8c64.8,8.3,322.9,27.8,322.9,27.8s50.9,6.5,42.6,67.5s-41.6,146.2-41.6,146.2
			s-25,60.1-74.9,55.5c0,0-13.9,5.6-23.1,21.3C662.8,537,629.5,574,589.7,571.3z"/>
	</g>
</g>
</svg>
